# xmcd
#
# Track frame offsets:
#	150
#	17258
#	34418
#	55804
#	72902
#	91687
#	108795
#	125955
#	147341
#	164439
#	194624
#
# Disc length: 2636 seconds
#
# Revision: 1
# Processed by: cddbd v1.5.2PL0 Copyright (c) Steve Scherf et al.
# Submitted via: audiograbber 1.83.01
#
DISCID=970a4a0b
DTITLE=PR1485G - Priddis PR1485g Country 2002 v.5
DYEAR=2003
DGENRE=Country
TTITLE0=Lee Ann Womack - Something Worth Leaving
TTITLE1=SHeDaisy - Mine All Mine
TTITLE2=Martina McBride - Where Would You Be
TTITLE3=Dixie Chicks - Long Time Gone
TTITLE4=Kellie Coffey - When You Lie Next To Me
TTITLE5=Lee Ann Womack - Something Worth Leaving w vocal
TTITLE6=SHeDaisy - Mine All Mine w vocal
TTITLE7=Martina McBride - Where Would You Be w vocal
TTITLE8=Dixie Chicks - Long Time Gone w vocal
TTITLE9=Kellie Coffey - When You Lie Next To Me w vocal
TTITLE10=DATA - DATA
EXTD=
EXTT0=
EXTT1=
EXTT2=
EXTT3=
EXTT4=
EXTT5=
EXTT6=
EXTT7=
EXTT8=
EXTT9=
EXTT10=
PLAYORDER=
